<?xml version="1.0" standalone="no"?>
<!DOCTYPE svg PUBLIC "-//W3C//DTD SVG 20010904//EN"
 "http://www.w3.org/TR/2001/REC-SVG-20010904/DTD/svg10.dtd">
<svg version="1.0" xmlns="http://www.w3.org/2000/svg"
 width="365.000000pt" height="365.000000pt" viewBox="0 0 365.000000 365.000000"
 preserveAspectRatio="xMidYMid meet">
<metadata>
Created by potrace 1.11, written by Peter Selinger 2001-2013
</metadata>
<g transform="translate(0.000000,365.000000) scale(0.100000,-0.100000)"
fill="#000000" stroke="none">
<path d="M1760 3495 c-19 -13 -41 -24 -47 -24 -7 -1 -13 -5 -13 -11 0 -5 -5
-10 -10 -10 -6 0 -28 -11 -49 -24 -21 -14 -42 -22 -45 -19 -3 4 -6 2 -6 -4 0
-5 -18 -18 -40 -29 -22 -10 -40 -22 -40 -26 0 -5 -7 -8 -15 -8 -8 0 -15 -4
-15 -10 0 -5 -3 -10 -7 -9 -15 2 -53 -13 -53 -21 0 -4 -13 -13 -29 -20 -16 -6
-32 -18 -35 -25 -5 -14 38 -57 48 -48 3 4 6 1 6 -5 0 -7 3 -11 8 -10 9 3 106
-53 110 -64 2 -4 12 -8 22 -8 10 0 22 -5 26 -11 3 -6 18 -16 33 -23 14 -6 44
-23 66 -36 22 -14 43 -24 48 -22 4 1 7 -5 7 -13 0 -8 3 -14 8 -13 9 3 72 -25
72 -33 0 -3 16 -11 35 -19 19 -8 35 -18 35 -22 0 -5 4 -7 9 -3 6 3 14 -3 20
-12 6 -10 11 -14 11 -10 0 4 17 -5 37 -20 20 -15 34 -21 29 -13 -4 9 -2 8 7
-2 8 -10 17 -15 20 -11 4 3 7 1 7 -5 0 -7 7 -12 15 -12 8 0 15 -5 15 -11 0 -5
5 -7 10 -4 6 3 10 1 10 -5 0 -6 5 -8 10 -5 6 3 10 1 10 -5 0 -6 4 -9 9 -6 5 3
11 -1 15 -9 3 -8 15 -15 26 -15 11 0 20 -4 20 -8 0 -5 10 -13 22 -19 l22 -10
-27 -25 c-26 -24 -61 -28 -77 -9 -8 10 -64 42 -82 48 -10 3 -18 10 -18 15 0 5
-5 6 -10 3 -6 -3 -13 1 -16 9 -3 9 -10 13 -15 10 -5 -3 -9 0 -9 6 0 6 -3 9 -7
7 -5 -3 -35 13 -67 34 -33 22 -66 39 -73 39 -7 0 -13 5 -13 11 0 5 -4 7 -10 4
-5 -3 -10 -1 -10 5 0 6 -4 9 -9 6 -5 -3 -12 1 -15 10 -3 8 -10 12 -16 9 -6 -3
-13 1 -16 9 -3 9 -10 14 -14 11 -4 -3 -19 4 -33 15 -14 11 -30 20 -36 20 -6 0
-11 5 -11 10 0 6 -7 10 -15 10 -8 0 -15 5 -15 11 0 5 -4 7 -10 4 -5 -3 -17 3
-26 14 -9 10 -23 17 -30 14 -8 -3 -14 -1 -14 5 0 10 -70 48 -82 44 -5 -1 -8 5
-8 13 0 9 -6 12 -15 9 -8 -4 -17 1 -21 9 -3 8 -13 13 -23 10 -15 -4 -17 -18
-17 -124 1 -73 -3 -119 -9 -119 -7 0 -7 -3 0 -8 6 -4 10 -28 11 -55 1 -52 16
-73 72 -97 17 -8 32 -18 32 -22 0 -5 7 -8 15 -8 8 0 15 -4 15 -8 0 -4 16 -14
35 -21 19 -7 35 -16 35 -20 0 -4 16 -13 35 -20 19 -7 49 -24 65 -38 17 -13 30
-21 30 -16 0 4 4 4 8 -2 7 -10 36 -28 85 -53 15 -7 27 -18 27 -23 0 -19 -74
-23 -88 -3 -4 5 -14 10 -22 12 -8 2 -22 9 -30 16 -8 6 -27 18 -42 26 -16 7
-28 17 -28 22 0 5 -4 7 -8 4 -5 -3 -25 6 -45 20 -20 14 -37 21 -37 17 0 -4 -4
-3 -8 2 -4 6 -37 29 -74 50 -38 22 -68 43 -68 47 0 4 -6 5 -13 2 -7 -2 -23 5
-35 16 -12 11 -22 17 -22 13 0 -4 -4 -3 -8 2 -4 6 -28 22 -54 35 -27 14 -48
29 -48 33 0 5 -4 6 -9 2 -6 -3 -14 3 -20 12 -6 10 -11 14 -11 10 0 -11 -60 25
-60 36 0 4 -4 6 -8 3 -5 -3 -25 6 -45 19 -20 14 -41 25 -46 25 -6 0 -11 4 -11
8 0 4 -16 14 -35 21 -19 7 -35 17 -35 23 0 7 -4 7 -13 -1 -8 -6 -17 -8 -20 -4
-4 3 -15 -1 -25 -10 -10 -10 -21 -15 -24 -12 -3 3 -11 -1 -18 -10 -7 -8 -18
-15 -24 -15 -7 0 -22 -9 -34 -20 -12 -12 -22 -18 -22 -15 0 3 -18 -6 -40 -20
-22 -14 -44 -25 -49 -25 -5 0 -14 -7 -21 -15 -7 -8 -16 -12 -21 -9 -5 3 -9 0
-9 -5 0 -6 -7 -11 -15 -11 -8 0 -15 -4 -15 -10 0 -5 -7 -10 -15 -10 -8 0 -23
-10 -35 -22 -14 -15 -20 -18 -20 -7 0 9 -3 10 -8 3 -4 -6 -23 -21 -42 -33 -19
-11 -29 -21 -21 -21 8 0 12 -3 8 -6 -6 -7 16 -34 28 -34 4 0 20 -9 36 -21 16
-11 29 -17 29 -13 0 4 7 -1 16 -12 8 -10 13 -12 9 -4 -4 10 -2 9 8 -2 8 -10
19 -18 24 -18 6 0 23 -10 39 -22 16 -13 30 -22 32 -20 5 5 62 -32 62 -41 0 -4
4 -6 9 -2 5 3 16 0 23 -7 8 -7 29 -21 48 -31 64 -34 95 -52 100 -57 3 -3 30
-18 60 -34 30 -16 61 -36 68 -45 10 -12 12 -12 6 -1 -6 11 -2 10 13 -2 11 -10
25 -18 31 -18 7 0 12 -5 12 -11 0 -5 4 -8 9 -5 5 4 11 2 13 -2 1 -5 28 -22 58
-39 91 -49 105 -58 112 -68 4 -5 8 -6 8 -2 0 5 7 1 16 -7 8 -9 22 -16 30 -16
8 0 14 -5 14 -11 0 -5 4 -8 9 -5 5 3 14 -1 21 -9 7 -8 19 -15 26 -15 8 0 14
-3 14 -8 0 -4 13 -13 30 -20 16 -7 45 -24 64 -37 19 -13 37 -21 40 -17 3 3 6
0 6 -6 0 -7 9 -12 19 -12 10 0 21 -7 25 -15 3 -8 12 -15 21 -15 8 0 15 -5 15
-11 0 -5 5 -7 10 -4 6 3 10 1 10 -6 0 -7 3 -10 6 -6 4 3 21 -4 38 -17 17 -13
41 -27 53 -30 11 -4 27 -13 33 -21 7 -8 21 -15 32 -15 12 0 17 -5 13 -12 -4
-7 -1 -6 7 2 7 8 18 15 23 16 21 1 65 24 65 33 0 6 7 8 15 5 8 -4 15 -1 15 5
0 6 7 11 15 11 8 0 15 4 15 9 0 8 28 19 47 19 3 0 10 7 15 16 5 9 13 14 19 11
5 -4 9 -1 9 4 0 6 6 11 14 11 7 0 19 7 26 15 7 8 16 13 20 10 4 -3 13 2 20 10
7 8 19 15 26 15 8 0 14 5 14 10 0 6 7 10 15 10 8 0 15 5 15 11 0 5 4 8 8 5 5
-3 18 2 28 12 11 9 26 18 34 20 8 2 18 9 22 15 4 7 8 8 8 2 0 -7 3 -7 8 0 12
17 114 76 107 62 -4 -6 0 -4 8 5 8 10 17 15 20 11 4 -3 7 -2 7 4 0 6 34 28 75
48 41 21 75 42 75 48 0 6 3 8 6 4 4 -3 13 1 21 9 8 8 19 12 24 9 5 -4 9 -1 9
5 0 6 14 16 30 21 17 6 30 15 30 21 0 5 4 7 9 4 5 -3 14 1 21 10 7 8 19 13 26
10 8 -3 13 -2 11 2 -1 4 2 8 6 9 4 1 15 9 23 18 9 8 19 13 24 10 4 -3 11 2 14
11 3 8 10 12 16 9 5 -3 10 -1 10 5 0 6 5 8 10 5 6 -3 10 -2 10 3 0 5 18 17 39
27 22 10 42 24 45 32 4 8 13 13 21 9 8 -3 15 -1 15 5 0 6 5 7 10 4 6 -3 10 -2
10 2 0 5 24 22 54 38 30 16 52 34 49 39 -3 5 -1 6 6 2 6 -4 24 2 40 13 16 12
34 21 39 21 16 0 10 34 -7 51 -9 8 -16 13 -16 11 0 -9 -55 19 -55 28 0 5 -9
10 -20 10 -11 0 -20 5 -20 10 0 6 -4 10 -9 10 -6 0 -38 17 -73 37 -35 21 -66
36 -70 35 -5 -1 -8 3 -8 9 0 5 -4 7 -10 4 -5 -3 -10 1 -10 10 0 11 -5 15 -15
11 -8 -3 -15 -1 -15 4 0 6 -7 10 -15 10 -8 0 -15 4 -15 9 0 8 -34 21 -46 18
-3 -1 -10 6 -15 16 -6 9 -14 15 -20 12 -5 -4 -12 1 -15 9 -3 9 -10 14 -14 11
-4 -3 -18 4 -31 14 -13 10 -34 21 -46 25 -13 4 -23 12 -23 17 0 5 -9 9 -19 9
-10 0 -22 7 -25 16 -3 8 -10 12 -16 9 -5 -3 -10 -2 -10 3 0 5 -8 12 -17 15
-23 7 -76 39 -84 50 -3 5 -8 8 -10 7 -2 -1 -22 8 -44 21 -22 13 -43 23 -47 21
-5 -1 -8 2 -8 7 0 5 -13 14 -30 21 -16 7 -30 16 -30 21 0 5 -3 8 -7 7 -14 -4
-93 42 -93 54 0 6 -3 8 -7 5 -3 -4 -17 0 -30 8 -13 9 -23 13 -23 10 0 -3 -10
3 -22 14 -11 11 -24 18 -28 16 -5 -3 -10 2 -14 10 -3 8 -12 15 -21 15 -8 0
-24 9 -35 20 -12 12 -25 18 -30 15 -6 -4 -10 -1 -10 4 0 6 -7 11 -15 11 -8 0
-15 5 -15 11 0 5 -4 7 -10 4 -5 -3 -10 -1 -10 5 0 6 -4 8 -10 5 -5 -3 -10 -2
-10 4 0 5 -16 15 -34 22 -19 7 -33 16 -30 21 12 19 -73 5 -106 -17z"/>
<path d="M326 2603 c-11 -12 -7 -1643 5 -1643 6 0 17 -6 24 -12 36 -33 47 -40
68 -44 12 -2 27 -10 32 -17 6 -8 20 -17 33 -21 12 -4 22 -11 22 -15 0 -4 16
-13 35 -20 19 -7 35 -17 35 -22 0 -5 9 -9 20 -9 11 0 20 -4 20 -9 0 -5 8 -11
18 -15 9 -3 33 -15 52 -27 67 -41 102 -58 114 -53 8 3 11 134 10 494 l-1 490
21 0 c42 -1 57 -24 60 -90 1 -33 -2 -63 -6 -66 -5 -3 -5 -11 -1 -17 11 -15 10
-287 0 -304 -4 -6 -4 -14 0 -16 10 -6 10 -208 0 -224 -4 -6 -4 -14 0 -16 5 -3
8 -55 7 -116 0 -110 0 -111 23 -111 13 0 23 5 23 11 0 5 5 7 10 4 6 -3 10 -1
10 6 0 7 3 9 6 6 4 -3 18 3 32 13 13 11 31 20 38 20 8 0 14 5 14 10 0 6 7 10
15 10 8 0 15 5 15 11 0 5 5 7 10 4 6 -3 10 -1 10 5 0 6 5 8 10 5 6 -3 10 -2
10 3 0 6 11 13 25 16 14 4 23 11 20 16 -3 6 3 10 15 10 20 0 43 36 33 53 -3 4
1 14 7 22 9 11 9 15 1 15 -13 0 -10 22 4 32 6 5 6 8 -2 8 -12 0 -12 18 1 39 5
8 4 16 -4 21 -9 5 -9 13 -2 27 8 14 8 23 1 30 -8 8 -8 13 0 17 7 4 7 15 1 31
-6 16 -5 25 3 29 9 3 9 5 -1 5 -10 1 -10 6 -2 21 8 15 8 20 -2 20 -9 0 -9 3
-1 11 7 7 8 21 3 38 -4 14 -4 35 0 46 4 11 3 23 -3 27 -7 4 -6 12 2 22 11 13
11 16 0 16 -11 0 -11 2 1 10 9 6 10 10 3 10 -19 0 -11 36 9 37 10 1 16 -2 13
-8 -4 -5 -2 -9 3 -9 16 0 30 -44 21 -68 -5 -14 -5 -21 1 -17 5 3 7 -9 5 -30
-4 -26 -2 -34 7 -29 8 5 8 3 2 -7 -12 -19 -14 -91 -3 -106 7 -7 6 -14 0 -18
-13 -8 -11 -55 3 -74 8 -11 8 -13 0 -8 -8 5 -12 -4 -12 -28 0 -19 4 -38 9 -41
6 -4 6 -10 0 -18 -9 -11 -11 -20 -11 -71 0 -51 2 -60 11 -71 6 -8 6 -14 0 -18
-5 -3 -9 -22 -9 -41 0 -24 4 -33 12 -28 8 5 8 3 0 -8 -16 -20 -16 -82 -1 -72
9 5 9 3 1 -8 -16 -20 -16 -82 -1 -72 9 5 9 3 1 -8 -16 -20 -16 -82 -1 -72 9 5
9 3 0 -8 -25 -31 5 -139 38 -139 6 0 23 -9 39 -20 15 -11 30 -17 34 -13 3 3 6
1 6 -6 0 -7 4 -9 10 -6 5 3 10 2 10 -3 0 -6 28 -25 63 -42 34 -18 65 -39 70
-46 4 -7 14 -11 22 -8 8 4 15 1 15 -5 0 -6 7 -11 15 -11 8 0 15 -3 15 -8 0 -4
15 -13 33 -21 17 -8 35 -18 38 -23 3 -5 15 -11 25 -12 10 -2 18 -9 16 -15 -2
-9 3 -9 17 -2 13 7 18 19 17 36 -2 14 1 25 6 25 5 0 6 5 2 11 -11 18 -10 99 1
99 7 0 7 3 0 8 -13 9 -13 145 0 154 7 5 7 8 0 8 -6 0 -10 37 -10 90 0 50 4 90
8 90 5 0 5 6 1 12 -12 19 -12 48 -1 48 6 0 2 10 -9 22 -10 12 -13 18 -5 13 11
-6 13 -4 8 8 -3 10 -2 17 4 17 6 0 7 6 3 12 -12 19 -12 48 -1 48 6 0 2 10 -9
22 -10 12 -13 18 -5 13 10 -6 12 1 8 34 -3 26 0 41 7 41 7 0 7 3 1 8 -12 8
-14 182 -2 182 5 0 5 6 1 12 -12 19 -12 48 0 48 6 0 6 4 -1 11 -7 7 -8 21 -3
40 5 17 5 27 0 24 -5 -3 -11 -1 -15 5 -3 5 -2 10 4 10 6 0 9 28 8 70 -2 44 1
70 7 70 7 0 8 3 1 8 -12 8 -14 182 -2 182 5 0 5 6 1 12 -12 19 -12 48 -1 48 6
0 2 10 -9 22 -10 12 -13 18 -7 14 19 -11 12 43 -9 74 -10 14 -33 32 -53 39
-19 7 -35 17 -35 22 0 5 -9 9 -20 9 -11 0 -20 5 -20 10 0 6 -7 10 -15 10 -8 0
-15 5 -15 10 0 6 -9 10 -20 10 -11 0 -20 4 -20 9 0 5 -18 17 -40 27 -22 10
-40 22 -40 28 0 5 -3 7 -6 3 -4 -3 -13 1 -21 9 -8 8 -19 12 -24 9 -5 -4 -9 -2
-9 3 0 5 -21 20 -47 33 -27 13 -57 32 -67 41 -11 10 -28 18 -38 18 -10 0 -18
4 -18 9 0 5 -14 14 -30 20 -17 5 -30 15 -30 22 0 7 -3 10 -6 6 -3 -3 -24 5
-45 19 -21 13 -43 24 -49 24 -5 0 -10 5 -10 10 0 6 -7 10 -15 10 -9 0 -18 6
-21 14 -3 8 -14 13 -25 11 -11 -2 -17 0 -15 4 3 4 -10 14 -29 21 -19 8 -35 17
-35 22 0 4 -7 8 -15 8 -8 0 -15 4 -15 8 0 8 -60 36 -72 33 -5 0 -8 3 -8 8 0 5
-28 24 -62 41 -35 18 -66 38 -70 44 -4 6 -8 7 -8 3 0 -5 -7 -1 -16 7 -8 9 -22
16 -30 16 -8 0 -14 5 -14 10 0 6 -7 10 -15 10 -8 0 -15 5 -15 11 0 5 -4 8 -9
4 -5 -3 -16 2 -24 10 -9 8 -23 15 -31 15 -9 0 -16 4 -16 8 0 5 -20 19 -45 32
-25 13 -45 27 -45 31 0 5 -7 6 -15 3 -8 -4 -15 -1 -15 5 0 6 -7 11 -16 11 -8
0 -13 4 -10 8 5 9 -29 13 -38 5z"/>
<path d="M3235 2582 c-16 -10 -35 -23 -43 -30 -7 -7 -17 -10 -22 -7 -4 3 -10
-2 -14 -10 -3 -8 -14 -15 -24 -15 -10 0 -27 -9 -37 -20 -10 -11 -22 -17 -26
-14 -5 3 -9 0 -9 -5 0 -6 -7 -11 -15 -11 -8 0 -15 -4 -15 -9 0 -7 -44 -25 -45
-18 0 1 -11 -8 -25 -20 -13 -13 -28 -23 -33 -23 -5 0 -21 -9 -37 -20 -15 -11
-30 -17 -34 -13 -3 3 -6 1 -6 -5 0 -7 -18 -19 -40 -28 -22 -9 -40 -20 -40 -26
0 -5 -4 -6 -10 -3 -5 3 -10 3 -10 -2 0 -4 -15 -14 -32 -22 -18 -8 -44 -22 -57
-33 -13 -10 -28 -15 -34 -11 -6 3 -7 1 -3 -5 4 -7 1 -12 -6 -12 -8 0 -20 -6
-26 -12 -7 -7 -16 -13 -20 -14 -8 0 -62 -31 -109 -61 -18 -13 -40 -23 -48 -23
-8 0 -20 -9 -27 -19 -6 -10 -18 -17 -25 -14 -7 3 -13 1 -13 -4 0 -9 -51 -37
-75 -42 -5 -1 -14 -9 -18 -17 -4 -8 -12 -14 -18 -14 -5 0 -37 -17 -72 -37 -34
-21 -79 -47 -100 -58 -20 -11 -37 -23 -37 -28 0 -4 -4 -6 -9 -3 -5 3 -14 -1
-21 -9 -7 -8 -16 -13 -20 -10 -4 2 -15 -4 -25 -15 -10 -11 -21 -18 -25 -15 -4
2 -20 -9 -36 -26 l-29 -30 0 -256 c0 -158 3 -261 10 -269 8 -12 14 -12 37 0
15 8 29 12 32 8 3 -3 6 0 6 6 0 6 14 18 30 27 17 9 30 12 30 8 0 -4 7 3 16 15
8 12 20 20 25 17 5 -4 9 -1 9 5 0 6 4 9 8 6 5 -3 18 3 29 14 12 10 24 16 27
13 3 -4 6 -1 6 5 0 7 6 12 14 12 7 0 25 9 40 21 14 11 26 18 26 14 0 -4 7 1
16 9 8 9 20 14 25 11 5 -4 9 -2 9 4 0 5 12 16 28 23 47 24 77 43 85 53 6 6 10
6 14 -3 2 -6 9 -9 15 -6 6 4 6 -1 -1 -14 -8 -15 -8 -22 2 -25 9 -4 8 -6 -2 -6
-11 -1 -11 -4 -1 -16 9 -11 9 -15 1 -15 -7 0 -9 -4 -6 -10 3 -5 -5 -15 -19
-21 -14 -7 -24 -15 -21 -18 2 -4 -6 -8 -17 -8 -12 -1 -24 -6 -27 -11 -10 -15
-55 -36 -70 -33 -7 1 -11 -2 -8 -6 3 -5 -15 -20 -41 -33 -69 -36 -147 -84
-150 -93 -2 -4 -8 -5 -13 -1 -5 3 -9 0 -9 -7 0 -7 -3 -9 -6 -6 -4 3 -18 -3
-32 -13 -13 -11 -29 -20 -34 -20 -10 0 -20 -7 -58 -42 -24 -22 -25 -26 -24
-158 2 -177 1 -169 24 -167 11 1 20 5 20 9 0 4 7 8 15 8 8 0 15 5 15 11 0 5 4
8 9 5 5 -3 11 1 15 9 3 8 15 15 26 15 11 0 20 5 20 11 0 5 5 7 10 4 6 -3 10
-1 10 4 0 6 7 11 15 11 8 0 15 5 15 11 0 5 4 7 10 4 6 -3 10 -1 10 5 0 6 5 8
10 5 6 -3 10 -1 10 4 0 6 7 11 15 11 8 0 15 5 15 11 0 5 5 7 10 4 6 -3 10 -1
10 5 0 6 4 9 9 6 5 -3 12 1 15 10 3 8 10 12 16 9 5 -3 10 -1 10 6 0 7 3 10 6
6 4 -3 25 6 48 21 22 16 62 39 89 52 26 14 47 28 47 32 0 5 7 8 15 8 8 0 15 4
15 10 0 5 7 7 15 4 8 -4 15 -2 15 3 0 5 20 20 45 32 25 12 45 27 45 32 0 6 4
8 9 4 5 -3 16 2 25 10 8 9 18 15 21 15 17 -2 63 36 71 59 5 14 9 119 8 232
l-1 206 34 16 c32 14 33 14 39 -9 4 -14 4 -36 2 -49 -3 -14 -1 -25 4 -25 5 0
6 -5 3 -11 -11 -17 -11 -89 0 -89 6 0 3 -5 -5 -10 -11 -7 -11 -10 -2 -10 7 0
10 -5 7 -11 -11 -17 -11 -89 0 -89 6 0 4 -4 -4 -9 -10 -6 -10 -10 -1 -16 9 -6
9 -10 -1 -17 -10 -6 -10 -11 -3 -14 7 -3 9 -18 4 -43 -4 -22 -3 -46 2 -55 6
-10 5 -16 -2 -16 -5 0 -9 -3 -9 -8 4 -21 -4 -32 -38 -54 -21 -12 -41 -22 -45
-20 -5 1 -8 -3 -8 -9 0 -5 -4 -7 -10 -4 -5 3 -10 2 -10 -4 0 -5 -18 -17 -40
-27 -22 -10 -40 -22 -40 -27 0 -4 -4 -5 -10 -2 -5 3 -10 3 -10 -2 0 -4 -14
-16 -31 -25 -18 -11 -27 -13 -24 -5 4 6 1 5 -7 -4 -7 -9 -41 -31 -75 -49 -35
-19 -63 -37 -63 -42 0 -4 -9 -8 -20 -8 -11 0 -20 -4 -20 -10 0 -5 -5 -10 -11
-10 -6 0 -23 -9 -39 -20 -15 -11 -30 -17 -34 -13 -3 3 -6 1 -6 -5 0 -7 -7 -12
-15 -12 -8 0 -15 -5 -15 -11 0 -5 -4 -7 -10 -4 -5 3 -10 1 -10 -4 0 -6 -5 -11
-11 -11 -7 0 -18 -8 -26 -17 -8 -10 -12 -12 -8 -6 4 9 1 11 -9 7 -9 -3 -16 -9
-16 -13 0 -4 -22 -18 -50 -32 -27 -13 -50 -27 -50 -31 0 -5 -6 -8 -14 -8 -8 0
-22 -7 -30 -16 -9 -8 -16 -13 -16 -9 0 3 -12 -6 -27 -20 l-28 -25 0 -270 c0
-237 2 -270 15 -270 9 0 22 6 29 12 11 11 13 10 7 -2 -4 -8 1 -5 12 7 11 12
22 19 26 16 3 -3 8 1 12 10 3 9 12 13 20 10 8 -3 14 0 14 6 0 6 7 11 15 11 8
0 15 5 15 11 0 6 7 9 15 5 8 -3 15 -1 15 5 0 5 8 12 18 16 9 3 24 12 32 19 8
7 22 14 30 16 8 2 17 5 20 8 11 12 105 64 113 62 4 -1 7 6 7 15 0 15 2 16 10
3 8 -13 10 -12 10 3 0 10 4 16 8 13 5 -3 25 6 45 20 20 14 37 22 37 19 0 -4 7
1 16 9 8 9 20 14 25 11 5 -4 9 -2 9 4 0 5 25 22 55 37 30 16 55 32 55 36 0 4
4 8 10 8 16 0 190 102 190 111 0 5 3 8 8 7 13 -4 52 13 52 23 0 5 6 9 14 9 7
0 24 8 37 19 13 10 29 20 34 22 6 1 26 12 45 23 19 12 37 19 39 18 2 -2 8 3
13 12 5 9 13 14 19 11 5 -4 9 -1 9 5 0 6 5 8 10 5 6 -3 10 -1 10 4 0 6 7 11
15 11 8 0 15 3 15 8 0 4 10 12 23 17 35 17 111 59 117 66 8 8 44 22 53 20 5
-1 6 3 2 9 -3 5 1 10 10 10 9 0 13 4 10 10 -3 6 -2 10 3 10 14 0 21 47 9 59
-7 7 -7 11 -1 11 11 0 11 171 0 189 -4 6 -3 11 1 11 10 0 9 173 -1 189 -4 6
-3 11 2 11 11 0 9 50 -2 68 -4 7 -3 12 1 12 10 0 9 173 -1 189 -4 6 -3 11 1
11 10 0 9 173 -1 189 -4 6 -3 11 2 11 11 0 9 50 -2 68 -4 7 -3 12 1 12 10 0 9
173 -1 189 -4 6 -4 11 1 11 9 0 9 293 -1 308 -3 6 0 12 6 15 10 3 10 7 1 17
-8 9 -9 19 -3 31 13 23 2 49 -19 48 -9 0 -29 -8 -46 -17z"/>
</g>
</svg>
